# xmcd
#
# Track frame offsets: 
#        150
#        12622
#        33970
#        55292
#        68557
#        83612
#        106802
#        128882
#        148892
#        166207
#        185970
#        204072
#        216602
#
# Disc length: 3141 seconds
#
# Revision: 3
# Processed by: cddbd v1.5.1PL0 Copyright (c) Steve Scherf et al.
# Submitted via: ExactAudioCopy v0.95a5
#
DISCID=bb0c430d
DTITLE=Laurie Lewis and Tom Rozum - The Oak and the Laurel
DYEAR=1995
DGENRE=Folk
TTITLE0=My Dixie Darlin'
TTITLE1=The Oak and the Laurel
TTITLE2=Texas Girl
TTITLE3=My Baby Came Back
TTITLE4=Sleepy Eyes
TTITLE5=Millionaire
TTITLE6=Teardops Falling in the Snow
TTITLE7=The Lighthouse
TTITLE8=Sleepy-Eyed John/ Tom and Jerry
TTITLE9=So Sad (to Watch Good Love Go Bad)
TTITLE10=Clark and Hazel
TTITLE11=Poor Country Boy
TTITLE12=Dream of a Home
EXTD=
EXTT0=
EXTT1=
EXTT2=
EXTT3=
EXTT4=
EXTT5=
EXTT6=
EXTT7=
EXTT8=
EXTT9=
EXTT10=
EXTT11=
EXTT12=
PLAYORDER=
